<svg width="141" height="23" viewBox="0 0 141 23" fill="none" xmlns="http://www.w3.org/2000/svg">
<path d="M6.555 10.875C7.315 10.875 7.975 10.78 8.535 10.59C9.105 10.4 9.57 10.14 9.93 9.81C10.3 9.47 10.575 9.07 10.755 8.61C10.935 8.15 11.025 7.645 11.025 7.095C11.025 5.995 10.66 5.15 9.93 4.56C9.21 3.97 8.105 3.675 6.615 3.675H4.035V10.875H6.555ZM16.935 22.245H13.29C12.6 22.245 12.1 21.975 11.79 21.435L7.23 14.49C7.06 14.23 6.87 14.045 6.66 13.935C6.46 13.825 6.16 13.77 5.76 13.77H4.035V22.245H0V0.554999H6.615C8.085 0.554999 9.345 0.709999 10.395 1.02C11.455 1.32 12.32 1.745 12.99 2.295C13.67 2.845 14.17 3.505 14.49 4.275C14.81 5.035 14.97 5.875 14.97 6.795C14.97 7.525 14.86 8.215 14.64 8.865C14.43 9.515 14.12 10.105 13.71 10.635C13.31 11.165 12.81 11.63 12.21 12.03C11.62 12.43 10.945 12.745 10.185 12.975C10.445 13.125 10.685 13.305 10.905 13.515C11.125 13.715 11.325 13.955 11.505 14.235L16.935 22.245Z" fill="white"/>
<path d="M27.5423 14.535C27.5423 15.755 27.3923 16.855 27.0923 17.835C26.7923 18.815 26.3423 19.65 25.7423 20.34C25.1523 21.03 24.4123 21.56 23.5223 21.93C22.6323 22.3 21.5973 22.485 20.4173 22.485C19.8773 22.485 19.3473 22.45 18.8273 22.38C18.3073 22.32 17.7623 22.22 17.1923 22.08C17.2223 21.68 17.2573 21.28 17.2973 20.88C17.3373 20.48 17.3723 20.08 17.4023 19.68C17.4323 19.46 17.5173 19.285 17.6573 19.155C17.8073 19.015 18.0173 18.945 18.2873 18.945C18.4573 18.945 18.6773 18.98 18.9473 19.05C19.2273 19.12 19.5773 19.155 19.9973 19.155C20.5673 19.155 21.0723 19.075 21.5123 18.915C21.9523 18.745 22.3173 18.48 22.6073 18.12C22.9073 17.76 23.1323 17.295 23.2823 16.725C23.4323 16.145 23.5073 15.445 23.5073 14.625V0.554999H27.5423V14.535Z" fill="white"/>
<path d="M53.7047 3.87H47.1647V22.245H43.1297V3.87H36.5897V0.554999H53.7047V3.87Z" fill="white"/>
<path d="M59.1645 6.615C60.3045 6.615 61.3395 6.8 62.2695 7.17C63.2095 7.54 64.0094 8.065 64.6694 8.745C65.3394 9.425 65.8545 10.255 66.2145 11.235C66.5745 12.215 66.7545 13.31 66.7545 14.52C66.7545 15.74 66.5745 16.84 66.2145 17.82C65.8545 18.8 65.3394 19.635 64.6694 20.325C64.0094 21.015 63.2095 21.545 62.2695 21.915C61.3395 22.285 60.3045 22.47 59.1645 22.47C58.0145 22.47 56.9695 22.285 56.0295 21.915C55.0895 21.545 54.2845 21.015 53.6145 20.325C52.9545 19.635 52.4395 18.8 52.0695 17.82C51.7095 16.84 51.5295 15.74 51.5295 14.52C51.5295 13.31 51.7095 12.215 52.0695 11.235C52.4395 10.255 52.9545 9.425 53.6145 8.745C54.2845 8.065 55.0895 7.54 56.0295 7.17C56.9695 6.8 58.0145 6.615 59.1645 6.615ZM59.1645 19.62C60.4445 19.62 61.3895 19.19 61.9995 18.33C62.6194 17.47 62.9295 16.21 62.9295 14.55C62.9295 12.89 62.6194 11.625 61.9995 10.755C61.3895 9.885 60.4445 9.45 59.1645 9.45C57.8645 9.45 56.8995 9.89 56.2695 10.77C55.6495 11.64 55.3395 12.9 55.3395 14.55C55.3395 16.2 55.6495 17.46 56.2695 18.33C56.8995 19.19 57.8645 19.62 59.1645 19.62Z" fill="white"/>
<path d="M82.841 6.855V22.245H80.576C80.086 22.245 79.776 22.02 79.646 21.57L79.391 20.34C78.761 20.98 78.066 21.5 77.306 21.9C76.546 22.29 75.651 22.485 74.621 22.485C73.781 22.485 73.036 22.345 72.386 22.065C71.746 21.775 71.206 21.37 70.766 20.85C70.326 20.33 69.991 19.715 69.761 19.005C69.541 18.285 69.431 17.495 69.431 16.635V6.855H73.136V16.635C73.136 17.575 73.351 18.305 73.781 18.825C74.221 19.335 74.876 19.59 75.746 19.59C76.386 19.59 76.986 19.45 77.546 19.17C78.106 18.88 78.636 18.485 79.136 17.985V6.855H82.841Z" fill="white"/>
<path d="M90.0096 9.525C90.4896 8.605 91.0596 7.885 91.7196 7.365C92.3796 6.835 93.1596 6.57 94.0596 6.57C94.7696 6.57 95.3396 6.725 95.7696 7.035L95.5296 9.81C95.4796 9.99 95.4046 10.12 95.3046 10.2C95.2146 10.27 95.0896 10.305 94.9296 10.305C94.7796 10.305 94.5546 10.28 94.2546 10.23C93.9646 10.18 93.6796 10.155 93.3996 10.155C92.9896 10.155 92.6246 10.215 92.3046 10.335C91.9846 10.455 91.6946 10.63 91.4346 10.86C91.1846 11.08 90.9596 11.35 90.7596 11.67C90.5696 11.99 90.3896 12.355 90.2196 12.765V22.245H86.5146V6.855H88.6896C89.0696 6.855 89.3346 6.925 89.4846 7.065C89.6346 7.195 89.7346 7.435 89.7846 7.785L90.0096 9.525Z" fill="white"/>
<path d="M101.546 6.855V22.245H97.826V6.855H101.546ZM102.056 2.37C102.056 2.69 101.991 2.99 101.861 3.27C101.731 3.55 101.556 3.795 101.336 4.005C101.126 4.215 100.876 4.385 100.586 4.515C100.296 4.635 99.986 4.695 99.656 4.695C99.336 4.695 99.031 4.635 98.741 4.515C98.461 4.385 98.216 4.215 98.006 4.005C97.796 3.795 97.626 3.55 97.496 3.27C97.376 2.99 97.316 2.69 97.316 2.37C97.316 2.04 97.376 1.73 97.496 1.44C97.626 1.15 97.796 0.900001 98.006 0.690001C98.216 0.48 98.461 0.315 98.741 0.195001C99.031 0.0650005 99.336 0 99.656 0C99.986 0 100.296 0.0650005 100.586 0.195001C100.876 0.315 101.126 0.48 101.336 0.690001C101.556 0.900001 101.731 1.15 101.861 1.44C101.991 1.73 102.056 2.04 102.056 2.37Z" fill="white"/>
<path d="M114.713 9.855C114.613 10.015 114.508 10.13 114.398 10.2C114.288 10.26 114.148 10.29 113.978 10.29C113.798 10.29 113.603 10.24 113.393 10.14C113.193 10.04 112.958 9.93 112.688 9.81C112.418 9.68 112.108 9.565 111.758 9.465C111.418 9.365 111.013 9.315 110.543 9.315C109.813 9.315 109.238 9.47 108.818 9.78C108.408 10.09 108.203 10.495 108.203 10.995C108.203 11.325 108.308 11.605 108.518 11.835C108.738 12.055 109.023 12.25 109.373 12.42C109.733 12.59 110.138 12.745 110.588 12.885C111.038 13.015 111.493 13.16 111.953 13.32C112.423 13.48 112.883 13.665 113.333 13.875C113.783 14.075 114.183 14.335 114.533 14.655C114.893 14.965 115.178 15.34 115.388 15.78C115.608 16.22 115.718 16.75 115.718 17.37C115.718 18.11 115.583 18.795 115.313 19.425C115.053 20.045 114.663 20.585 114.143 21.045C113.623 21.495 112.978 21.85 112.208 22.11C111.448 22.36 110.568 22.485 109.568 22.485C109.038 22.485 108.518 22.435 108.008 22.335C107.508 22.245 107.023 22.115 106.553 21.945C106.093 21.775 105.663 21.575 105.263 21.345C104.873 21.115 104.528 20.865 104.228 20.595L105.083 19.185C105.193 19.015 105.323 18.885 105.473 18.795C105.623 18.705 105.813 18.66 106.043 18.66C106.273 18.66 106.488 18.725 106.688 18.855C106.898 18.985 107.138 19.125 107.408 19.275C107.678 19.425 107.993 19.565 108.353 19.695C108.723 19.825 109.188 19.89 109.748 19.89C110.188 19.89 110.563 19.84 110.873 19.74C111.193 19.63 111.453 19.49 111.653 19.32C111.863 19.15 112.013 18.955 112.103 18.735C112.203 18.505 112.253 18.27 112.253 18.03C112.253 17.67 112.143 17.375 111.923 17.145C111.713 16.915 111.428 16.715 111.068 16.545C110.718 16.375 110.313 16.225 109.853 16.095C109.403 15.955 108.938 15.805 108.458 15.645C107.988 15.485 107.523 15.3 107.063 15.09C106.613 14.87 106.208 14.595 105.848 14.265C105.498 13.935 105.213 13.53 104.993 13.05C104.783 12.57 104.678 11.99 104.678 11.31C104.678 10.68 104.803 10.08 105.053 9.51C105.303 8.94 105.668 8.445 106.148 8.025C106.638 7.595 107.243 7.255 107.963 7.005C108.693 6.745 109.533 6.615 110.483 6.615C111.543 6.615 112.508 6.79 113.378 7.14C114.248 7.49 114.973 7.95 115.553 8.52L114.713 9.855Z" fill="white"/>
<path d="M118.507 22.245V6.855H120.772C121.252 6.855 121.567 7.08 121.717 7.53L121.957 8.67C122.227 8.37 122.507 8.095 122.797 7.845C123.097 7.595 123.412 7.38 123.742 7.2C124.082 7.02 124.442 6.88 124.822 6.78C125.212 6.67 125.637 6.615 126.097 6.615C127.067 6.615 127.862 6.88 128.482 7.41C129.112 7.93 129.582 8.625 129.892 9.495C130.132 8.985 130.432 8.55 130.792 8.19C131.152 7.82 131.547 7.52 131.977 7.29C132.407 7.06 132.862 6.89 133.342 6.78C133.832 6.67 134.322 6.615 134.812 6.615C135.662 6.615 136.417 6.745 137.077 7.005C137.737 7.265 138.292 7.645 138.742 8.145C139.192 8.645 139.532 9.255 139.762 9.975C140.002 10.695 140.122 11.52 140.122 12.45V22.245H136.417V12.45C136.417 11.47 136.202 10.735 135.772 10.245C135.342 9.745 134.712 9.495 133.882 9.495C133.502 9.495 133.147 9.56 132.817 9.69C132.497 9.82 132.212 10.01 131.962 10.26C131.722 10.5 131.532 10.805 131.392 11.175C131.252 11.545 131.182 11.97 131.182 12.45V22.245H127.462V12.45C127.462 11.42 127.252 10.67 126.832 10.2C126.422 9.73 125.817 9.495 125.017 9.495C124.477 9.495 123.972 9.63 123.502 9.9C123.042 10.16 122.612 10.52 122.212 10.98V22.245H118.507Z" fill="white"/>
</svg>
